<svg xmlns="http://www.w3.org/2000/svg" width="500" height="500" viewBox="0 0 500 500" version="1.1">
	<path 
	d="M 227.500 15.925 C 225.300 16.959, 210.900 29.140, 195.500 42.993 C 180.100 56.846, 166.749 68.851, 165.832 69.671 C 164.312 71.030, 162.356 69.152, 143.894 48.603 C 121.669 23.867, 119.244 21.979, 109.761 22.026 C 106.867 22.041, 102.798 22.828, 100.717 23.776 C 98.637 24.724, 83.471 37.576, 67.015 52.336 C 44.681 72.368, 36.576 80.245, 35.048 83.402 C 32.433 88.802, 32.377 97.075, 34.917 102.500 C 35.947 104.700, 45.691 116.368, 56.570 128.430 L 76.349 150.359 72.820 153.430 C 70.878 155.118, 57.307 167.256, 42.660 180.403 C 12.970 207.053, 11.656 208.704, 11.804 219.183 C 11.866 223.541, 12.513 226.188, 14.195 228.972 C 15.463 231.070, 25.001 242.265, 35.391 253.850 C 56.156 277.002, 58.791 279.017, 68.239 278.978 C 71.276 278.965, 75.191 278.157, 77.500 277.067 C 79.700 276.028, 94.771 263.217, 110.992 248.598 L 140.484 222.018 143.612 225.259 C 145.332 227.041, 182.636 268.550, 226.511 317.500 C 270.385 366.450, 309.257 409.555, 312.891 413.289 C 318.113 418.653, 320.549 420.381, 324.500 421.527 C 330.805 423.355, 338.819 422.248, 343.317 418.927 C 345.067 417.634, 359.373 404.999, 375.107 390.849 C 394.270 373.616, 404.339 363.864, 405.607 361.311 C 408.492 355.503, 408.206 345.667, 404.998 340.376 C 403.624 338.110, 363.575 292.974, 316 240.076 C 268.425 187.177, 229.384 143.573, 229.243 143.177 C 229.102 142.782, 242.485 130.334, 258.984 115.514 C 281.912 94.920, 289.456 87.562, 290.991 84.296 C 293.538 78.878, 293.580 70.873, 291.091 65.392 C 289.538 61.974, 256.701 24.401, 250.361 18.788 C 244.869 13.927, 234.508 12.629, 227.500 15.925 M 394.212 413.943 C 371.618 434.261, 352.652 451.781, 352.066 452.877 C 350.164 456.430, 350.826 460.780, 353.750 463.952 C 356.355 466.778, 358.795 467.462, 400.167 476.967 C 424.184 482.485, 445.116 487, 446.683 487 C 451.084 487, 456.189 483.721, 458.389 479.481 L 460.380 475.646 455.121 431.573 C 452.228 407.333, 449.410 386.045, 448.858 384.266 C 447.499 379.883, 443.592 377, 439.011 377 C 435.527 377, 432.692 379.338, 394.212 413.943" 
	stroke="none" 
	fill="#00bfff" 
	fill-rule="evenodd"
	/>
</svg>