<svg xmlns="http://www.w3.org/2000/svg" width="500" height="500" viewBox="0 0 500 500" version="1.1">
	<path d="M 110.755 14.734 C 103.901 17.284, 32.703 81.239, 29.938 87.328 C 27.682 92.298, 27.399 101.647, 29.365 106.282 C 30.115 108.052, 39.759 119.560, 50.795 131.856 L 70.861 154.211 43.180 179.101 C 20.749 199.271, 15.076 204.892, 13.263 208.745 C 10.790 214, 10.353 220.781, 12.145 226.101 C 13.630 230.513, 15.095 232.270, 45.402 266 C 73.748 297.547, 76.728 300.019, 86.364 299.978 C 89.189 299.966, 93.310 299.134, 95.522 298.129 C 97.734 297.124, 111.909 285.197, 127.022 271.624 L 154.500 246.947 156.500 249.367 C 157.600 250.699, 193.137 290.319, 235.471 337.412 C 294.392 402.956, 313.402 423.500, 316.537 425.018 C 322.335 427.825, 331.403 427.705, 336.780 424.750 C 339.032 423.512, 357.024 407.965, 376.762 390.201 C 404.811 364.956, 413.124 356.924, 414.825 353.424 C 417.810 347.278, 417.779 338.752, 414.750 333.163 C 413.512 330.880, 377.595 290.197, 334.934 242.756 C 292.273 195.315, 257.364 156.050, 257.359 155.500 C 257.354 154.950, 268.698 144.277, 282.570 131.782 C 311.343 105.864, 312.611 104.206, 311.762 93.620 C 311.488 90.204, 310.571 86.080, 309.726 84.455 C 308.881 82.830, 295.319 67.220, 279.589 49.768 C 259.361 27.324, 249.747 17.385, 246.745 15.813 C 241 12.805, 232.039 12.768, 226.500 15.729 C 224.300 16.905, 211.479 27.797, 198.009 39.934 C 184.538 52.070, 173.256 62, 172.937 62 C 172.618 62, 163.444 52.079, 152.549 39.954 C 139.559 25.497, 131.386 17.217, 128.802 15.899 C 123.187 13.034, 116.486 12.602, 110.755 14.734 M 435.500 376.894 C 432.273 378.283, 352.016 450.872, 350.829 453.475 C 350.235 454.780, 350.046 457.429, 350.408 459.363 C 351.712 466.313, 352.647 466.653, 401.447 477.909 C 450.728 489.277, 450.475 489.252, 456.350 483.378 C 461.288 478.439, 461.271 477.467, 455.403 429.236 C 452.409 404.631, 449.736 383.784, 449.463 382.908 C 448.017 378.278, 440.154 374.892, 435.500 376.894" stroke="none" fill="#0b7eea" fill-rule="evenodd"/>
</svg>