<svg xmlns="http://www.w3.org/2000/svg" width="500" height="500" viewBox="0 0 500 500" version="1.1">
	<path d="M 137.500 11.014 C 134.560 11.947, 65.470 62.315, 59.688 67.741 C 52.898 74.113, 50.958 85.702, 55.279 94.081 C 56.533 96.511, 64.248 107.477, 72.423 118.449 C 80.599 129.421, 87.336 138.943, 87.394 139.608 C 87.452 140.274, 75.800 149.416, 61.500 159.924 C 31.334 182.091, 27.711 185.456, 26.144 192.762 C 24.867 198.716, 25.829 205.547, 28.531 209.720 C 33.279 217.053, 75.487 273.720, 77.361 275.278 C 83.847 280.668, 95.808 282.081, 102.338 278.228 C 104.340 277.047, 117.962 267.246, 132.610 256.447 C 154.673 240.182, 159.463 237.044, 160.528 238.157 C 161.235 238.896, 191.141 279.325, 226.987 328 C 262.832 376.675, 293.577 417.697, 295.308 419.160 C 301.189 424.131, 312.484 425.588, 319.039 422.222 C 322.837 420.271, 389.745 371.337, 394.380 367.120 C 400.847 361.236, 403.330 348.412, 399.454 340.906 C 398.487 339.033, 368.031 297.281, 331.774 248.123 C 290.307 191.902, 266.204 158.396, 266.800 157.800 C 267.320 157.280, 279.166 148.445, 293.123 138.168 C 316.703 120.805, 318.695 119.098, 321.250 114.061 C 324.168 108.310, 324.784 102.220, 323.056 96.195 C 322.320 93.630, 288.559 46.552, 275.103 29.329 C 269.802 22.544, 258.713 19.331, 250.500 22.200 C 248.300 22.969, 236.150 31.235, 223.500 40.569 C 210.850 49.903, 199.115 58.519, 197.422 59.716 L 194.343 61.892 177.422 38.849 C 158.482 13.057, 156.326 11.092, 146.250 10.436 C 143.088 10.230, 139.150 10.490, 137.500 11.014 M 373.405 417.078 C 350.907 433.621, 331.488 448.271, 330.250 449.634 C 328.635 451.412, 328 453.350, 328 456.500 C 328 464.503, 328.064 464.536, 372.915 479.508 C 399.186 488.278, 414.760 492.988, 417.415 492.965 C 422.289 492.922, 425.025 491.534, 428.166 487.510 L 430.500 484.519 430.285 453.010 C 430.168 435.679, 429.779 415.002, 429.422 407.060 C 428.788 392.951, 428.709 392.555, 425.963 389.810 C 423.731 387.577, 422.245 387, 418.732 387 C 414.506 387, 412.485 388.341, 373.405 417.078" stroke="none" fill="#0fa3ff" fill-rule="evenodd"/>
</svg>